<svg id="group" xmlns="http://www.w3.org/2000/svg" width="223" height="30" viewBox="0 0 223 30">
  <defs>
    <style>
      .cls-1 {
        fill: #ce2b29;
      }

      .cls-2 {
        fill: #eee;
      }
    </style>
  </defs>
  <rect id="background" class="cls-1" width="223" height="30" rx="3"/>
  <path id="text" class="cls-2" d="M66.2,18.92a5.78,5.78,0,0,1-1.79-.25,4.11,4.11,0,0,1-1.47-.86,1,1,0,0,1-.38-.74.77.77,0,0,1,.24-.56.75.75,0,0,1,.57-.25.76.76,0,0,1,.48.17,4.07,4.07,0,0,0,1.09.67,3.39,3.39,0,0,0,1.26.21A2.56,2.56,0,0,0,67.55,17a1,1,0,0,0,.57-.87,1.1,1.1,0,0,0-.56-1,4.75,4.75,0,0,0-1.78-.54c-2-.3-3.07-1.25-3.07-2.86a2.55,2.55,0,0,1,.47-1.53,2.81,2.81,0,0,1,1.26-1,4.4,4.4,0,0,1,1.77-.34,5,5,0,0,1,1.66.27,3.93,3.93,0,0,1,1.3.7.92.92,0,0,1,.4.74.85.85,0,0,1-.23.57.77.77,0,0,1-.56.24.58.58,0,0,1-.38-.13,3.69,3.69,0,0,0-1-.53,3.2,3.2,0,0,0-1.17-.25,2.4,2.4,0,0,0-1.36.33,1,1,0,0,0,0,1.77,4.58,4.58,0,0,0,1.56.5,8,8,0,0,1,1.93.54,2.43,2.43,0,0,1,1.08.9A2.69,2.69,0,0,1,69.8,16a2.52,2.52,0,0,1-.5,1.55,3.22,3.22,0,0,1-1.32,1A4.42,4.42,0,0,1,66.2,18.92Zm10.63-7.63a.79.79,0,0,1,.6.25.81.81,0,0,1,.24.6V15.7a3.24,3.24,0,0,1-.84,2.37,3.73,3.73,0,0,1-4.74,0,3.27,3.27,0,0,1-.82-2.37V12.14a.81.81,0,0,1,.24-.6.77.77,0,0,1,.6-.25.79.79,0,0,1,.6.25.81.81,0,0,1,.24.6V15.7A1.8,1.8,0,0,0,73.33,17a1.47,1.47,0,0,0,1.13.41A1.51,1.51,0,0,0,75.61,17,1.85,1.85,0,0,0,76,15.7V12.14a.85.85,0,0,1,.23-.6A.79.79,0,0,1,76.83,11.29Zm6.53-.14a3.19,3.19,0,0,1,1.75.5A3.39,3.39,0,0,1,86.35,13a4.19,4.19,0,0,1,.46,2,4.43,4.43,0,0,1-.45,2,3.49,3.49,0,0,1-1.22,1.38,3.14,3.14,0,0,1-1.72.5,3,3,0,0,1-1.27-.27,3.6,3.6,0,0,1-1-.67v2.75a.85.85,0,0,1-.24.61.88.88,0,0,1-1.21,0,.85.85,0,0,1-.23-.61V12.14a.85.85,0,0,1,.23-.6.86.86,0,0,1,1.21,0,.81.81,0,0,1,.24.6v.06a2.82,2.82,0,0,1,.93-.73A2.62,2.62,0,0,1,83.36,11.15Zm-.21,6.23a1.83,1.83,0,0,0,1.47-.67A2.47,2.47,0,0,0,85.2,15a2.47,2.47,0,0,0-.57-1.67,2,2,0,0,0-3,0A2.47,2.47,0,0,0,81.1,15a2.51,2.51,0,0,0,.57,1.68A1.85,1.85,0,0,0,83.15,17.38Zm8.94-6.23a3.24,3.24,0,0,1,1.75.5A3.44,3.44,0,0,1,95.07,13a4.19,4.19,0,0,1,.46,2,4.43,4.43,0,0,1-.45,2,3.42,3.42,0,0,1-1.22,1.38,3.14,3.14,0,0,1-1.72.5,3,3,0,0,1-1.26-.27,3.51,3.51,0,0,1-1-.67v2.75a.85.85,0,0,1-.24.61.81.81,0,0,1-.6.24.8.8,0,0,1-.6-.24.82.82,0,0,1-.24-.61V12.14a.81.81,0,0,1,.24-.6.77.77,0,0,1,.6-.25.79.79,0,0,1,.6.25.81.81,0,0,1,.24.6v.06a2.77,2.77,0,0,1,.94-.73A2.57,2.57,0,0,1,92.09,11.15Zm-.21,6.23a1.86,1.86,0,0,0,1.47-.67A2.51,2.51,0,0,0,93.92,15a2.47,2.47,0,0,0-.57-1.67,1.83,1.83,0,0,0-1.47-.67,1.86,1.86,0,0,0-1.49.67A2.47,2.47,0,0,0,89.82,15a2.51,2.51,0,0,0,.57,1.68A1.86,1.86,0,0,0,91.88,17.38ZM104.13,15a4,4,0,0,1-.51,2,3.52,3.52,0,0,1-1.38,1.38,4,4,0,0,1-3.85,0A3.66,3.66,0,0,1,97,17.05a4,4,0,0,1-.5-2,4.1,4.1,0,0,1,.5-2,3.66,3.66,0,0,1,1.38-1.38,4,4,0,0,1,3.85,0A3.52,3.52,0,0,1,103.62,13,4,4,0,0,1,104.13,15Zm-1.68,0a2.56,2.56,0,0,0-.29-1.22,2.16,2.16,0,0,0-.77-.84,2.05,2.05,0,0,0-2.91.84A2.56,2.56,0,0,0,98.19,15a2.53,2.53,0,0,0,.29,1.22,2.13,2.13,0,0,0,.77.83,2.12,2.12,0,0,0,2.14,0,2.2,2.2,0,0,0,.77-.83A2.53,2.53,0,0,0,102.45,15Zm7-3.89a1.09,1.09,0,0,1,.71.24.7.7,0,0,1,.28.56.87.87,0,0,1-.22.65.77.77,0,0,1-.53.22,1.58,1.58,0,0,1-.48-.1l-.19-.06a1.06,1.06,0,0,0-.31,0,1.21,1.21,0,0,0-.7.22,1.67,1.67,0,0,0-.56.68,2.62,2.62,0,0,0-.21,1.09v3.32a.81.81,0,0,1-.24.6.86.86,0,0,1-1.21,0,.85.85,0,0,1-.23-.6V12.14a.85.85,0,0,1,.23-.6.86.86,0,0,1,1.21,0,.81.81,0,0,1,.24.6v.19a2.06,2.06,0,0,1,.92-.88A2.84,2.84,0,0,1,109.42,11.15Zm5.79,6a.47.47,0,0,1,.36.19.71.71,0,0,1,.16.49.75.75,0,0,1-.41.64,1.76,1.76,0,0,1-.93.26,2.66,2.66,0,0,1-1.46-.37,1.73,1.73,0,0,1-.6-1.58V13h-.64a.75.75,0,0,1-.56-.22.77.77,0,0,1-.23-.56.71.71,0,0,1,.23-.54.75.75,0,0,1,.56-.22h.64v-.9a.81.81,0,0,1,.24-.6.82.82,0,0,1,.61-.25.76.76,0,0,1,.59.25.81.81,0,0,1,.24.6v.9h1a.75.75,0,0,1,.56.22.77.77,0,0,1,.23.56.71.71,0,0,1-.23.54A.75.75,0,0,1,115,13h-1v3.79a.55.55,0,0,0,.15.43.64.64,0,0,0,.42.13,1,1,0,0,0,.31-.05A.77.77,0,0,1,115.21,17.2Zm14.68-6a2.06,2.06,0,0,1,1.91.85,4.31,4.31,0,0,1,.54,2.34v3.59a.81.81,0,0,1-.24.6.86.86,0,0,1-1.21,0,.85.85,0,0,1-.23-.6V14.34a2.07,2.07,0,0,0-.31-1.21,1.19,1.19,0,0,0-1-.44,1.63,1.63,0,0,0-1.23.47,1.67,1.67,0,0,0-.44,1.18v3.59a.81.81,0,0,1-.24.6.77.77,0,0,1-.6.25.79.79,0,0,1-.6-.25.81.81,0,0,1-.24-.6V14.34a2.15,2.15,0,0,0-.3-1.21,1.19,1.19,0,0,0-1.06-.44,1.6,1.6,0,0,0-1.22.47,1.63,1.63,0,0,0-.44,1.18v3.59a.81.81,0,0,1-.24.6.79.79,0,0,1-.6.25.77.77,0,0,1-.6-.25.81.81,0,0,1-.24-.6V12.14a.81.81,0,0,1,.24-.6.77.77,0,0,1,.6-.25.79.79,0,0,1,.6.25.81.81,0,0,1,.24.6v.23a3.33,3.33,0,0,1,1-.86,2.39,2.39,0,0,1,1.29-.36,2.12,2.12,0,0,1,2.26,1.54,3.11,3.11,0,0,1,1-1.06A2.43,2.43,0,0,1,129.89,11.15Zm11,3.71a.73.73,0,0,1-.27.55.89.89,0,0,1-.59.21H135.4a2.09,2.09,0,0,0,.77,1.29,2.18,2.18,0,0,0,1.36.47,3.1,3.1,0,0,0,.9-.1,3.15,3.15,0,0,0,.51-.23l.26-.16a1.08,1.08,0,0,1,.47-.13.69.69,0,0,1,.51.21.68.68,0,0,1,.21.49.86.86,0,0,1-.4.69,3.43,3.43,0,0,1-1.05.55,4,4,0,0,1-1.33.22,4.12,4.12,0,0,1-2.05-.49,3.5,3.5,0,0,1-1.35-1.35,3.92,3.92,0,0,1-.47-1.94,4.22,4.22,0,0,1,.5-2.11,3.66,3.66,0,0,1,1.33-1.4,3.45,3.45,0,0,1,1.76-.48,3.34,3.34,0,0,1,1.75.5A3.88,3.88,0,0,1,140.39,13,3.74,3.74,0,0,1,140.88,14.86Zm-3.55-2.17a1.73,1.73,0,0,0-1.91,1.53h3.66v-.1a1.41,1.41,0,0,0-.57-1A1.83,1.83,0,0,0,137.33,12.69ZM153.39,15a4,4,0,0,1-.5,2,3.66,3.66,0,0,1-1.38,1.38,4,4,0,0,1-3.86,0,3.63,3.63,0,0,1-1.37-1.38,4,4,0,0,1-.5-2,4,4,0,0,1,.5-2,3.63,3.63,0,0,1,1.37-1.38,4,4,0,0,1,3.86,0A3.66,3.66,0,0,1,152.89,13,4.1,4.1,0,0,1,153.39,15Zm-1.68,0a2.55,2.55,0,0,0-.28-1.22,2.18,2.18,0,0,0-.78-.84,2,2,0,0,0-1.07-.29,2.1,2.1,0,0,0-1.07.29,2.16,2.16,0,0,0-.77.84,2.55,2.55,0,0,0-.28,1.22,2.53,2.53,0,0,0,.28,1.22,2.2,2.2,0,0,0,.77.83,2.1,2.1,0,0,0,1.07.29,2,2,0,0,0,1.07-.29,2.23,2.23,0,0,0,.78-.83A2.53,2.53,0,0,0,151.71,15Zm7.09-3.89a2.15,2.15,0,0,1,2,.85,4.31,4.31,0,0,1,.55,2.34v3.59a.81.81,0,0,1-.24.6.86.86,0,0,1-1.21,0,.85.85,0,0,1-.23-.6V14.34a2,2,0,0,0-.33-1.21,1.28,1.28,0,0,0-1.1-.44,1.74,1.74,0,0,0-1.28.47,1.65,1.65,0,0,0-.46,1.18v3.59a.81.81,0,0,1-.24.6.77.77,0,0,1-.6.25.79.79,0,0,1-.6-.25.81.81,0,0,1-.24-.6V12.14a.81.81,0,0,1,.24-.6.79.79,0,0,1,.6-.25.77.77,0,0,1,.6.25.81.81,0,0,1,.24.6v.24a3.52,3.52,0,0,1,1-.87A2.59,2.59,0,0,1,158.8,11.15Zm15.9,6.17a1,1,0,0,1,.14.28.8.8,0,0,1,.06.3.82.82,0,0,1-.29.63,1,1,0,0,1-.67.25.89.89,0,0,1-.35-.08.92.92,0,0,1-.28-.24l-3-4L169,15.73v2.2a.83.83,0,0,1-.25.61.86.86,0,0,1-.64.24.84.84,0,0,1-.86-.85V9.83a.82.82,0,0,1,.25-.61.89.89,0,0,1,.64-.24.84.84,0,0,1,.62.24.82.82,0,0,1,.24.61v3.81l4.48-4.41a1,1,0,0,1,.68-.32.69.69,0,0,1,.55.27.83.83,0,0,1,.22.56.75.75,0,0,1-.25.54l-3,2.91ZM183.42,15a4,4,0,0,1-.5,2,3.66,3.66,0,0,1-1.38,1.38,4,4,0,0,1-3.86,0,3.63,3.63,0,0,1-1.37-1.38,4,4,0,0,1-.5-2,4,4,0,0,1,.5-2,3.63,3.63,0,0,1,1.37-1.38,4,4,0,0,1,3.86,0A3.66,3.66,0,0,1,182.92,13,4.1,4.1,0,0,1,183.42,15Zm-1.68,0a2.55,2.55,0,0,0-.28-1.22,2.18,2.18,0,0,0-.78-.84,2,2,0,0,0-1.07-.29,2.1,2.1,0,0,0-1.07.29,2.16,2.16,0,0,0-.77.84,2.55,2.55,0,0,0-.28,1.22,2.53,2.53,0,0,0,.28,1.22,2.2,2.2,0,0,0,.77.83,2.1,2.1,0,0,0,1.07.29,2,2,0,0,0,1.07-.29,2.23,2.23,0,0,0,.78-.83A2.53,2.53,0,0,0,181.74,15Zm3.73.28a.82.82,0,0,1-.61-.24.77.77,0,0,1-.25-.6.78.78,0,0,1,.25-.59.85.85,0,0,1,.61-.23h2.43a.84.84,0,0,1,.86.85.78.78,0,0,1-.25.58.83.83,0,0,1-.61.23ZM194,9.9a.76.76,0,0,0-.67.28,1,1,0,0,0-.19.59v.66h1.27a.76.76,0,0,1,.56.22.8.8,0,0,1,0,1.1.76.76,0,0,1-.56.22H193.1v5a.81.81,0,0,1-.24.6.86.86,0,0,1-1.21,0,.85.85,0,0,1-.23-.6V13h-.76a.76.76,0,0,1-.56-.22.8.8,0,0,1,0-1.1.76.76,0,0,1,.56-.22h.76v-.64a2.21,2.21,0,0,1,.72-1.71,3,3,0,0,1,2.08-.66,1.87,1.87,0,0,1,.9.21.67.67,0,0,1,.38.64.77.77,0,0,1-.19.55.63.63,0,0,1-.48.21h-.15l-.16,0A2.21,2.21,0,0,0,194,9.9Zm3.83,8a.81.81,0,0,1-.24.6.86.86,0,0,1-1.21,0,.85.85,0,0,1-.23-.6V12.14a.85.85,0,0,1,.23-.6.86.86,0,0,1,1.21,0,.81.81,0,0,1,.24.6Zm-.86-7.55a1.12,1.12,0,0,1-.67-.15.68.68,0,0,1-.2-.55V9.41a.62.62,0,0,1,.21-.54,1.19,1.19,0,0,1,.68-.16,1.15,1.15,0,0,1,.68.16.65.65,0,0,1,.2.54v.27a.65.65,0,0,1-.2.55A1.23,1.23,0,0,1,196.93,10.38Z"/>
  <path id="kofi" class="cls-2" d="M43,7.08H25.3A1.3,1.3,0,0,0,24,8.38V20.33a2.59,2.59,0,0,0,2.59,2.59H38.83a2.59,2.59,0,0,0,2.59-2.59V18.64H43A5.61,5.61,0,0,0,48.64,13v-.33A5.61,5.61,0,0,0,43,7.08Zm-5.92,8.14a21.93,21.93,0,0,1-4.75,4.62,21.93,21.93,0,0,1-4.75-4.62c-1.17-1.83-.34-4.62,1.9-4.62a2.66,2.66,0,0,1,2.85,1.76,2.66,2.66,0,0,1,2.85-1.76C37.45,10.6,38.28,13.39,37.11,15.22Zm5.77.42H41.42V10.08h1.46a2.78,2.78,0,1,1,0,5.56Z"/>
</svg>
