<svg id="group" xmlns="http://www.w3.org/2000/svg" width="24.64" height="15.84" viewBox="0 0 24.64 15.84">
  <defs>
    <style>
      .cls-1 {
        fill: #eee;
      }
    </style>
  </defs>
  <path id="kofi" class="cls-1" d="M19,0H1.3A1.3,1.3,0,0,0,0,1.3v12a2.59,2.59,0,0,0,2.59,2.59H14.83a2.59,2.59,0,0,0,2.59-2.59h0V11.56H19A5.61,5.61,0,0,0,24.64,6V5.59A5.61,5.61,0,0,0,19,0ZM13.08,8.14a21.91,21.91,0,0,1-4.75,4.62A21.91,21.91,0,0,1,3.58,8.14c-1.17-1.83-.34-4.62,1.9-4.62A2.65,2.65,0,0,1,8.33,5.28a2.65,2.65,0,0,1,2.85-1.76c2.27,0,3.1,2.79,1.93,4.62Zm5.77.42H17.42V3h1.46a2.78,2.78,0,1,1,0,5.56h0Z"/>
</svg>
